<?xml version="1.0" standalone="no"?>
<!DOCTYPE svg PUBLIC "-//W3C//DTD SVG 20010904//EN"
 "http://www.w3.org/TR/2001/REC-SVG-20010904/DTD/svg10.dtd">
<svg version="1.0" xmlns="http://www.w3.org/2000/svg"
 width="400.000000pt" height="400.000000pt" viewBox="0 0 400.000000 400.000000"
 preserveAspectRatio="xMidYMid meet">
<metadata>
Created by potrace 1.14, written by Peter Selinger 2001-2017
</metadata>
<g transform="translate(0.000000,400.000000) scale(0.100000,-0.100000)"
fill="#000000" stroke="none">
<path d="M0 2000 l0 -2000 2000 0 2000 0 0 2000 0 2000 -2000 0 -2000 0 0
-2000z m2246 10 c252 -253 461 -465 462 -470 2 -6 -86 -10 -240 -10 l-243 0
-462 462 c-255 255 -463 466 -463 470 0 5 109 8 243 8 l243 0 460 -460z
m-1166 345 c58 -58 109 -105 115 -105 6 0 33 23 60 50 l49 50 123 -122 123
-123 -53 -53 -52 -54 228 -223 c125 -122 227 -225 227 -229 0 -3 -109 -6 -243
-6 l-242 0 -105 105 c-58 58 -109 105 -115 105 -6 0 -57 -47 -115 -105 l-105
-105 -245 0 -245 0 230 230 230 230 -230 230 -230 230 245 0 245 0 105 -105z
m1610 0 c58 -58 109 -105 115 -105 6 0 57 47 115 105 l105 105 245 0 245 0
-230 -230 -230 -230 230 -230 230 -230 -245 0 -245 0 -105 105 c-58 58 -109
105 -115 105 -6 0 -33 -23 -60 -50 l-49 -50 -123 122 -123 123 53 53 52 54
-227 223 c-126 122 -228 225 -228 229 0 3 109 6 243 6 l242 0 105 -105z"/>
</g>
</svg>
